<svg width="32" height="32" viewBox="0 0 32 32" fill="none" xmlns="http://www.w3.org/2000/svg">
  <!-- Background circle -->
  <circle cx="16" cy="16" r="15" fill="#FF6B35" stroke="#004E89" stroke-width="2"/>
  
  <!-- Sword -->
  <g transform="translate(8, 6)">
    <!-- Sword blade -->
    <rect x="2" y="2" width="1.5" height="12" fill="#FFFFFF" rx="0.5"/>
    <!-- Sword handle -->
    <rect x="1" y="14" width="3.5" height="2" fill="#8B4513" rx="0.5"/>
    <!-- Sword guard -->
    <rect x="0.5" y="12" width="4.5" height="1" fill="#C0C0C0" rx="0.5"/>
    <!-- Sword tip -->
    <polygon points="2.75,2 3.5,0.5 4.25,2" fill="#FFFFFF"/>
  </g>
  
  <!-- Shuffle arrows -->
  <g transform="translate(18, 8)">
    <!-- Arrow 1 -->
    <path d="M2 2 L6 2 L6 1 L8 3 L6 5 L6 4 L2 4 Z" fill="#FFFFFF"/>
    <!-- Arrow 2 -->
    <path d="M2 6 L6 6 L6 7 L8 5 L6 3 L6 4 L2 4 Z" fill="#FFFFFF"/>
    <!-- Arrow 3 -->
    <path d="M2 10 L6 10 L6 9 L8 11 L6 13 L6 12 L2 12 Z" fill="#FFFFFF"/>
  </g>
</svg>
